<svg width="58" height="54" viewBox="0 0 58 54" fill="none" xmlns="http://www.w3.org/2000/svg">
<g clip-path="url(#clip0_491_2442)">
<path d="M54.3484 25.09C54.1403 24.8593 54.0672 24.4515 53.8365 24.3053C52.6272 23.5684 51.4262 22.7725 49.899 22.7922C49.6454 22.7577 49.3957 22.6983 49.1537 22.615C49.335 22.4984 49.5228 22.3923 49.7162 22.2971C50.6584 21.954 51.3559 20.9725 51.0437 20.0725C50.6725 19.0065 50.9228 18.1037 51.429 17.2037C50.8272 17.08 49.4603 17.7662 49.179 18.2865C48.805 19.0121 48.4225 19.735 48.0906 20.4803C47.9479 20.7736 47.8876 21.1003 47.9162 21.4253C47.9978 21.9625 47.8375 22.224 47.3031 22.2971C46.867 22.3552 46.4342 22.4359 46.0065 22.539C45.5312 22.6515 45.0643 22.8006 44.3921 22.9918C44.5018 22.2859 44.454 21.7431 44.6734 21.3465C45.0446 20.6715 44.9743 20.0809 44.7971 19.3778C44.7132 18.8401 44.7604 18.2901 44.935 17.7746C45.0587 17.3106 45.4412 16.914 45.5593 16.45C45.8181 15.4318 46.7068 14.9959 47.2946 14.2815L47.5506 14.4221L45.8912 17.5609C46.5718 17.5609 47.095 17.5609 47.6181 17.5609C48.4872 17.5778 48.9597 17.1109 49.2015 16.3178C49.2616 16.0085 49.3968 15.7187 49.5953 15.474C50.2759 14.8468 50.349 14.0509 50.3406 13.224C50.3406 12.0821 50.2984 10.9431 50.2506 9.8012C50.2142 9.5147 50.1511 9.23223 50.0622 8.95745C49.7556 9.31745 49.5812 9.63245 49.3168 9.8012C48.4731 10.3637 47.8234 11.2834 46.7012 11.4887C46.42 11.5393 46.2034 11.9303 45.9643 12.1693C45.8378 12.2931 45.7225 12.4281 45.6156 12.5462L45.5987 12.3831C45.3175 12.7093 45.0362 13.0103 44.769 13.2803C44.6537 13.6515 44.5075 14.1465 44.3275 14.6275C44.274 14.7737 44.0462 14.9903 43.9506 14.965C43.6693 14.8918 43.4134 14.8075 43.1462 14.7146C42.8425 14.6106 42.5415 14.5009 42.2406 14.3912C42.2332 14.3866 42.2269 14.3804 42.222 14.3731C42.2172 14.3659 42.2139 14.3576 42.2125 14.349L40.5925 13.7021C40.2184 14.1409 39.7037 14.0171 39.1862 13.9412C38.8206 13.885 38.455 13.8006 38.0865 13.7809C37.2597 13.7359 36.9615 14.1071 37.3412 14.8665C38.0725 16.3403 39.1384 17.5103 40.8146 17.9012C41.5486 18.0262 42.2898 18.1041 43.0337 18.1347C43.0731 18.0531 43.1153 17.9715 43.1575 17.89L42.2546 16.2615L42.46 16.1321C42.9971 16.8606 44.1081 17.1193 44.08 18.3175C44.0523 18.9079 44.057 19.4994 44.094 20.0893C44.179 20.7541 44.0906 21.4296 43.8373 22.0501C43.584 22.6706 43.1744 23.2149 42.6484 23.6303C42.114 24.0775 41.8046 24.8143 41.2618 25.2278C39.6531 26.4371 38.109 27.7168 36.2472 28.6028C34.4612 29.4465 32.8722 30.6981 31.1847 31.7753C30.7375 32.0565 30.3184 32.4025 29.8515 32.65C29.6034 32.7171 29.345 32.7381 29.0893 32.7118C29.0893 32.5093 29.0725 32.3096 29.0697 32.1071C29.0697 30.7403 29.8909 29.6575 30.3128 28.434C30.5386 27.6673 30.8421 26.9257 31.2184 26.2206C31.705 25.4078 32.3575 24.6962 33.4881 24.7721C33.1869 25.0399 32.8724 25.2924 32.5459 25.5287C32.3574 25.7287 32.1922 25.9495 32.0537 26.1868C32.2646 26.3218 32.47 26.5525 32.6921 26.5693C33.6287 26.6425 34.5709 26.6621 35.5046 26.6818C37.3018 26.7184 38.4128 25.5568 39.6953 24.339C38.3818 23.9003 37.164 23.6134 36.039 23.0818C34.7537 22.4687 33.5303 23.0003 32.1972 23.1746C32.7822 21.5996 32.6331 20.2187 31.7556 19.0825C31.053 18.1378 30.492 17.0955 30.0906 15.9887C29.992 15.8053 29.868 15.6367 29.7221 15.4881C29.5506 15.6287 29.3059 15.7356 29.2159 15.9184C28.6534 17.0237 28.1359 18.1431 27.61 19.2624C26.9181 20.7446 27.3934 22.989 28.614 23.9931C28.8053 24.128 29.0065 24.2484 29.2159 24.3531C29.8628 22.9046 29.1428 21.4562 29.5675 20.0359C29.947 20.5725 30.2394 21.1658 30.4337 21.7937C30.6671 22.8231 30.8078 23.889 30.2565 24.8874C29.9162 25.509 29.5647 26.125 29.244 26.755C28.8025 27.6156 28.3862 28.4903 27.9559 29.3565C27.79 29.6968 27.6184 30.0315 27.4496 30.369C27.2556 30.76 27.0334 31.1368 26.8703 31.539C26.6397 32.1015 26.4512 32.6922 26.2459 33.2687L25.9815 33.2378C25.8972 32.4193 25.7762 31.6009 25.734 30.7768C25.6721 29.6124 25.8071 28.4228 25.6103 27.2865C25.329 25.6581 25.2137 24.069 25.6328 22.4575C25.6398 22.3115 25.6237 22.1653 25.585 22.0243C25.5259 21.3915 25.4359 20.7587 25.4246 20.1231C25.4246 19.8193 25.6075 19.5128 25.6356 19.2034C25.7228 18.1543 25.6862 17.0856 25.8718 16.059C26.0575 15.0325 26.9968 14.5037 27.5312 13.7134C27.5762 13.6515 27.7168 13.6571 27.8125 13.6318C28.0403 13.7865 28.2709 14.0621 28.4903 14.0537C29.3931 14.0087 30.2931 13.8653 31.1959 13.7725C33.4178 13.5306 35.2009 12.4281 36.7534 10.9037C36.988 10.6109 37.1864 10.2908 37.344 9.95027C36.714 9.97277 36.2668 10.2315 35.8028 10.254C34.8915 10.3075 33.9718 10.254 33.055 10.2118C32.8379 10.1955 32.625 10.1432 32.425 10.0571C31.2174 9.59297 29.8806 9.59297 28.6731 10.0571C27.8687 10.3553 27.1403 10.8559 26.3246 11.2975C26.2037 10.7631 25.9928 10.285 26.0068 9.81246C26.0856 7.06746 24.6006 5.37152 22.3506 4.13965C21.3071 3.57715 20.2975 2.94152 19.2568 2.36215C18.8584 2.13078 18.4335 1.94852 17.9912 1.81934C17.8797 1.82402 17.7712 1.85725 17.6761 1.91584C17.5811 1.97444 17.5027 2.05645 17.4484 2.15402C17.2701 2.92152 17.1638 3.70397 17.1306 4.49121C17.1306 5.27309 17.0771 6.17871 17.4259 6.81152C17.985 7.77456 18.6986 8.6392 19.5381 9.37089C20.2412 10.0037 21.1384 10.4256 21.9709 10.9065C22.3419 11.1357 22.7474 11.3038 23.1718 11.4043C23.8187 11.5337 24.1 11.1765 23.8103 10.5943C23.3603 9.68027 22.8456 8.80277 22.3618 7.90558C22.2951 7.77156 22.2369 7.63348 22.1875 7.49214C22.3258 7.47801 22.4656 7.49603 22.5959 7.54482C22.7261 7.5936 22.8434 7.67183 22.9384 7.77339C23.3355 8.32489 23.6713 8.91809 23.9396 9.54246C24.2429 10.345 24.4726 11.1734 24.6259 12.0175C24.8734 13.3253 25.0759 14.6471 25.2137 15.9746C25.2587 16.3881 25.0056 16.8184 24.9325 17.26C24.7187 18.5228 24.5331 19.7912 24.3137 21.0568C24.2166 21.3585 24.0914 21.6504 23.9396 21.9287L22.165 18.9475C22.0676 19.1975 22.0262 19.4658 22.0437 19.7335C22.0612 20.0013 22.1372 20.2619 22.2662 20.4971C22.7387 21.5631 23.3293 22.6262 23.5262 23.7512C23.8243 25.4696 23.8328 27.2359 23.9509 28.9853C23.9496 29.2209 23.9289 29.4561 23.889 29.6884C23.1887 28.9909 22.4575 28.3693 21.8584 27.6409C21.1372 26.7225 20.2593 25.9389 19.2653 25.3262C17.7803 24.4487 16.374 23.4418 14.9256 22.4996C14.7719 22.4187 14.6015 22.3744 14.4278 22.3703C13.944 22.3309 13.4968 22.2775 13.3028 21.7093C13.2493 21.5462 13.0497 21.4084 12.8865 21.3015C11.3225 20.2542 10.0793 18.7939 9.29497 17.0828C10.4706 17.364 10.8362 18.8603 12.1918 19.0515C12.099 18.5424 12.0315 18.084 11.9303 17.6453C11.815 17.1249 11.6237 16.6159 11.5562 16.0928C11.4634 15.3812 11.5112 14.65 11.3987 13.944C11.2271 12.8753 10.9768 11.8121 9.84058 11.3003C8.76058 10.8165 7.67496 10.3496 6.37559 9.78152V11.7643C6.37559 14.0959 6.18153 16.4556 7.40215 18.6043C7.50175 18.8272 7.64087 19.0301 7.81277 19.2034C8.39496 19.6731 9.00808 20.0978 9.60433 20.5506C9.76746 20.6771 9.90527 20.8318 10.2315 21.1468C9.9381 21.1802 9.64182 21.1802 9.3484 21.1468C8.82784 21.0021 8.27278 21.0471 7.78233 21.2738C7.29187 21.5004 6.89796 21.8941 6.6709 22.3843C6.06179 23.7359 5.22349 24.9719 4.19309 26.0378C4.06735 26.1847 3.95532 26.3429 3.8584 26.5103C3.89496 26.5946 3.92871 26.6762 3.96527 26.7578C4.98059 26.6537 6.00152 26.5778 7.01121 26.4287C7.48794 26.3431 7.95193 26.1976 8.39215 25.9956C8.76602 25.8464 9.11211 25.6353 9.4159 25.3712C9.83778 24.9831 10.1668 24.4965 10.5718 24.0887C11.1906 23.4643 11.1343 23.0481 10.3187 22.7809C11.2806 22.2325 12.2115 22.089 13.1875 22.7021C14.1634 23.3153 15.3728 23.2084 16.2137 24.1562C17.0546 25.104 18.1965 25.7284 18.9896 26.6875C19.9487 27.8321 21.22 28.7434 21.7881 30.22C21.9118 30.5434 22.1565 30.7993 21.7881 31.0159C21.669 31.0733 21.5392 31.1054 21.4071 31.1102C21.275 31.115 21.1433 31.0925 21.0203 31.044C19.4706 30.3381 17.9068 30.3465 16.239 30.6418C15.114 30.8415 13.9243 30.729 12.7656 30.7487C12.6485 30.7285 12.5355 30.6896 12.4309 30.6334C12.4731 30.5378 12.5181 30.445 12.5631 30.3522H14.5684C14.0059 28.1556 10.5887 25.9168 7.74246 27.174C8.02371 27.6662 8.45403 28.1359 8.52715 28.6562C8.58654 29.2744 8.80965 29.8655 9.17349 30.3688C9.53733 30.872 10.0288 31.2692 10.5971 31.5193C10.9628 31.6937 11.334 31.8596 11.7221 32.0424C11.0921 33.4487 9.43278 33.7046 8.76621 34.6074C8.93778 35.0574 9.13746 35.3162 9.10371 35.5384C8.88715 36.8856 8.78308 38.2834 7.64402 39.4759C8.12496 39.4337 8.43434 39.414 8.7409 39.3775C9.85184 39.2396 11.0415 39.2931 11.6968 38.1006C11.7362 38.0275 11.8712 38.0162 11.9472 37.9571C12.7909 37.3046 13.719 36.7309 14.4503 35.9687C14.8065 35.6132 15.0662 35.1728 15.205 34.6891C15.3438 34.2054 15.357 33.6943 15.2434 33.204C14.3293 33.249 14.3771 33.2884 13.8793 33.8987C13.2859 34.6243 12.594 35.274 11.9443 35.9575L11.7193 35.7831C11.9106 35.0575 12.1412 34.36 12.8246 33.8847C13.3393 33.5247 13.8653 33.1731 13.989 32.4784C14.057 32.2922 14.1885 32.1358 14.3603 32.0368C16.0478 30.8921 17.8028 31.6065 19.4818 32.0368C20.3453 32.259 21.1384 32.8328 21.8978 33.3446C22.6572 33.8565 23.6162 34.3656 23.619 35.4231C23.6549 37.3023 23.5609 39.1818 23.3378 41.0481C23.214 41.9734 23.0368 43.0703 22.2578 43.4668C22.0553 44.1587 22.0131 44.7043 21.7375 45.0671C21.5884 45.2584 21.0287 45.1318 20.6546 45.1515C20.6546 45.0784 20.635 45.0081 20.6265 44.9378L21.5293 43.869L21.4084 43.7284C21.1442 43.9017 20.8897 44.0895 20.6462 44.2909C20.1287 44.7718 19.614 45.1656 18.8406 44.8534C18.5796 44.7683 18.3035 44.7395 18.0306 44.769C15.8593 44.859 13.6853 44.9068 11.5196 45.0812C9.60433 45.2359 7.69747 45.5368 5.78778 45.7815C5.63637 45.8179 5.48996 45.8727 5.35184 45.9447C5.40598 46.0129 5.47621 46.0665 5.55622 46.1009C5.63624 46.1353 5.72353 46.1492 5.81027 46.1415C6.31934 46.0487 6.81715 45.8856 7.32902 45.8265C9.22184 45.6043 11.1146 45.2921 13.0131 45.2359C15.5106 45.1628 18.0137 45.2809 20.514 45.3625C21.189 45.385 21.4337 45.8096 21.0962 46.3553C20.7703 46.8588 20.368 47.3086 19.9037 47.6884C19.3665 48.1468 18.61 48.3128 18.4609 49.2184C18.4047 49.5559 17.8393 49.8484 17.4597 50.0818C16.8606 50.4531 16.1968 50.7175 15.609 51.1028C15.2096 51.3643 14.9368 51.82 14.5318 52.0646C14.0734 52.2902 13.5951 52.4728 13.1031 52.6103C14.1184 52.4556 15.1337 52.4021 15.879 51.4853C16.2756 50.9931 17.0321 50.8046 17.5665 50.4137C18.0272 50.119 18.4328 49.7459 18.7646 49.3112C18.8419 49.1512 18.973 49.0235 19.135 48.9505C19.297 48.8775 19.4795 48.8638 19.6506 48.9118C20.0413 48.9482 20.4346 48.8793 20.7897 48.7121C21.4759 48.4028 22.1171 47.995 22.7865 47.6434C23.5065 47.2693 23.6078 47.3621 23.664 48.1553C23.7671 49.7853 23.4311 51.4131 22.6909 52.869C22.5786 53.2138 22.5078 53.5706 22.48 53.9321C22.7303 53.8225 22.8034 53.8112 22.8146 53.7803C23.2393 52.6187 23.29 51.2884 24.3559 50.4053C24.4121 50.3575 24.4093 50.2168 24.4065 50.124C24.384 49.134 24.3559 48.1553 24.3278 47.0303C24.609 46.8559 24.9297 47.0472 25.2559 47.3678C25.471 47.6325 25.7321 47.8564 26.0265 48.0287C27.1037 48.4956 27.2275 48.5912 27.1825 49.7443C27.1628 50.2928 26.7803 50.9312 26.9603 51.3643C27.3062 52.1912 26.859 52.8353 26.7803 53.5581C26.7897 53.6434 26.8145 53.7263 26.8534 53.8028C27.5903 52.5062 27.1853 51.0634 27.3934 49.7668C28.3806 49.6768 28.78 50.1718 29.199 50.8918C29.6546 51.6821 30.4084 52.2981 31.0328 52.9928C31.0468 53.0097 31.0778 53.0096 31.1256 53.0237C31.1256 52.059 30.3156 51.6175 29.8431 50.9762C29.5422 50.56 29.0865 50.2056 29.2665 49.6262C29.9612 49.7218 30.6193 49.7668 31.255 49.9075C31.8175 50.0368 32.515 50.1325 32.8384 50.5121C33.55 51.3559 34.7734 51.6118 35.2009 52.7312C35.2487 52.8521 35.4821 52.9168 35.6396 52.9815C36.1346 53.1868 36.6353 53.3781 37.1331 53.5722C37.4396 53.6903 37.7462 53.8 38.05 53.9153C34.9956 51.924 33.6934 50.8862 33.2884 49.8934C33.6681 49.8625 34.0337 49.809 34.3965 49.8062C35.485 49.8062 36.4834 49.9018 37.3271 50.8075C37.8756 51.3925 38.5815 51.9831 39.5321 51.8959C39.3928 51.7195 39.2343 51.5592 39.0597 51.4178C38.1793 50.8187 37.285 50.2421 36.3934 49.6571C36.3934 49.5756 36.3934 49.4968 36.4075 49.4181C39.3831 48.3775 42.4853 47.6631 45.2893 46.1753C44.9171 46.1624 44.5457 46.2206 44.1953 46.3468C42.9746 46.7856 41.7737 47.2665 40.539 47.6884C39.3043 48.1103 38.0387 48.5321 36.7703 48.8837C36.1692 49.0871 35.5126 49.0488 34.9393 48.7768C33.685 48.1946 32.9397 47.154 32.1268 46.1837C31.4631 45.4018 30.7768 44.6143 30.6137 43.4865C30.4928 42.6428 30.3887 41.7315 29.6968 41.0734C29.6321 41.0115 29.6237 40.8906 29.5956 40.7922C29.3481 40.0243 29.095 39.2565 28.8643 38.4859C28.7657 38.2605 28.7354 38.0112 28.7771 37.7687C29.1371 36.8659 29.2553 35.8281 30.1525 35.2009C30.3156 35.0884 30.3775 34.8409 30.5209 34.6834C30.7984 34.3295 31.1165 34.0095 31.4687 33.7299C32.2703 33.1871 33.1309 32.7371 33.9409 32.2056C34.5653 31.795 35.1587 31.4293 35.9631 31.4828C36.9025 31.5475 37.8475 31.4996 38.7896 31.5221C40.7078 31.5643 40.8343 32.11 41.4812 33.7412C41.2521 33.6085 41.0165 33.4874 40.7753 33.3784C40.6175 33.3143 40.4476 33.2855 40.2775 33.294C39.94 34.0956 39.355 34.9281 39.3943 35.724C39.4478 36.8125 40.3506 37.6225 41.1437 38.4662C42.1478 36.9615 43.4134 35.6818 43.4528 33.6653C46.3412 34.2756 48.4225 32.2056 51.159 31.8231C50.9878 31.6579 50.7992 31.5117 50.5965 31.3871C49.3843 30.9259 48.1975 30.3465 46.9403 30.0653C45.3962 29.7165 43.7931 29.6378 42.3165 30.4618C42.1703 30.5434 42.0746 30.7234 41.9565 30.8556C42.1056 30.9625 42.2378 31.1368 42.4009 31.1593C43.1153 31.2437 43.8325 31.2887 44.5468 31.3365C44.9743 31.3675 45.3906 31.3759 45.8293 31.3956C45.8293 31.48 45.8546 31.5615 45.8687 31.6459C45.6081 31.7616 45.331 31.8356 45.0475 31.8653C43.9478 31.809 42.8846 31.9946 41.754 31.4518C40.6684 30.9287 39.31 30.9793 38.0753 30.7543C37.8587 30.715 37.5128 30.5715 37.4987 30.445C37.4999 30.3238 37.5271 30.2043 37.5785 30.0947C37.63 29.985 37.7044 29.8877 37.7968 29.8093C38.0472 29.5928 38.4353 29.5281 38.6687 29.3031C39.4365 28.555 40.1368 27.7365 40.9187 26.9912C41.7851 26.0856 42.7197 25.2478 43.7143 24.4853C44.7297 23.7709 45.8406 23.079 47.1681 23.1493C47.9725 23.1971 48.7628 23.4306 49.5643 23.529C50.6697 23.6528 51.3812 24.3728 52.135 25.1181C51.1534 24.8368 50.3125 24.024 49.0834 24.3615C49.1904 24.515 49.3059 24.6624 49.4293 24.8031C50.124 25.4837 51.0325 26.049 51.4684 26.8675C51.6881 27.2995 51.9934 27.6824 52.3657 27.9928C52.738 28.3032 53.1695 28.5347 53.634 28.6731C54.9587 29.1343 56.2525 29.3312 57.2903 28.3581C56.32 27.2471 55.3243 26.1784 54.3484 25.09ZM28.7715 12.6868C28.5747 13.1031 28.434 13.5784 27.8518 13.6093C27.867 13.3701 27.9687 13.1446 28.1379 12.9749C28.3072 12.8051 28.5324 12.7027 28.7715 12.6868ZM31.2437 48.2706C32.5853 47.6828 33.3756 48.6446 34.4472 49.2578C33.5781 49.5756 32.8018 49.6375 32.0537 49.345C31.629 49.1762 31.1509 48.9062 31.2437 48.2706ZM29.1878 48.0512C29.8009 47.9809 30.49 47.8234 30.76 48.684C30.8495 48.8764 30.9599 49.0584 31.089 49.2268C30.5406 49.539 29.1737 49.3084 28.9122 48.8415C28.7462 48.5378 28.6534 48.1159 29.1878 48.0512ZM39.6137 51.879H39.5771L39.594 51.8959L39.6137 51.879Z" fill="#008201"/>
<path d="M18.8469 18.9082C19.1282 19.0207 19.4094 19.122 19.6907 19.2457C19.8295 19.3175 19.963 19.3993 20.09 19.4904C19.955 19.6085 19.8397 19.7717 19.685 19.8307C18.4694 20.2292 17.1511 20.1783 15.9697 19.6873C14.7997 19.167 13.776 18.3204 12.7354 17.5245C15.0388 17.6651 17.2972 16.7257 19.6513 17.6989C19.4797 15.747 20.8016 14.8864 21.8563 13.8232C23.3357 15.0664 23.4847 16.8692 22.475 18.2839C22.2275 18.6298 21.8254 18.5651 21.6313 18.1545C21.4738 17.8507 21.2825 17.5667 21.1054 17.2742L20.9057 17.3726L21.3557 19.0039L18.92 18.5707L18.8469 18.9082Z" fill="#008201"/>
<path d="M3.30188 22.8518C5.00895 22.8518 6.39281 21.4679 6.39281 19.7609C6.39281 18.0538 5.00895 16.6699 3.30188 16.6699C1.5948 16.6699 0.210938 18.0538 0.210938 19.7609C0.210938 21.4679 1.5948 22.8518 3.30188 22.8518Z" fill="white" stroke="#018103" stroke-width="0.421875" stroke-miterlimit="10"/>
<path d="M0.937051 19.2881L1.27455 19.6846C1.29515 19.7081 1.3234 19.7235 1.35429 19.7281C1.38518 19.7328 1.41671 19.7263 1.4433 19.7099C1.81076 19.4806 2.20213 19.292 2.61048 19.1474C3.36705 18.8859 3.84799 17.8818 3.29955 17.6821C3.16022 17.6199 3.035 17.5299 2.93153 17.4177C2.82806 17.3056 2.74849 17.1735 2.69767 17.0296C2.68714 17.0076 2.67059 16.989 2.64994 16.976C2.62929 16.963 2.60537 16.9561 2.58096 16.9561C2.55654 16.9561 2.53262 16.963 2.51197 16.976C2.49131 16.989 2.47477 17.0076 2.46424 17.0296C2.15486 17.5781 1.43205 18.8043 0.962362 19.1024C0.947823 19.1124 0.935532 19.1253 0.926279 19.1404C0.917027 19.1554 0.911016 19.1722 0.908632 19.1896C0.906249 19.2071 0.907541 19.2249 0.912435 19.2418C0.917328 19.2588 0.925718 19.2745 0.937051 19.2881Z" fill="#A2B983"/>
<path d="M2.86062 22.6634C2.78993 22.6725 2.71808 22.6645 2.65108 22.6403C2.58407 22.616 2.52384 22.576 2.47541 22.5237C2.42698 22.4714 2.39174 22.4083 2.37264 22.3397C2.35354 22.271 2.35113 22.1988 2.36561 22.129C2.41127 21.969 2.41902 21.8005 2.38827 21.637C2.35751 21.4734 2.28909 21.3193 2.18843 21.1868C1.84249 20.7874 2.58218 20.6665 3.03218 20.6243C3.11307 20.6172 3.19372 20.6403 3.25862 20.6891C3.32352 20.7379 3.36808 20.809 3.38374 20.8887C3.47936 21.3443 3.61718 22.2246 3.31906 22.4777C3.18658 22.5812 3.02777 22.6455 2.86062 22.6634Z" fill="#A2B983"/>
<path d="M5.65624 18.2443C5.65624 18.2443 4.76749 18.8828 4.76749 19.1443C4.76749 19.4059 5.38343 20.1962 4.76749 20.1962C4.15155 20.1962 4.62124 20.905 4.76749 21.6503L4.80405 21.8331C4.81701 21.8813 4.84258 21.9252 4.87813 21.9603C4.91367 21.9954 4.95792 22.0203 5.00631 22.0326C5.05471 22.045 5.10551 22.0442 5.1535 22.0303C5.20148 22.0165 5.24492 21.9902 5.27936 21.954L5.84186 21.1299C6.10355 20.74 6.21359 20.2679 6.15123 19.8025C6.04717 19.0853 5.8728 18.1262 5.65624 18.2443Z" fill="#A2B983"/>
<path d="M6.67934 34.5208C7.96547 34.5208 9.00809 33.4782 9.00809 32.192C9.00809 30.9059 7.96547 29.8633 6.67934 29.8633C5.3932 29.8633 4.35059 30.9059 4.35059 32.192C4.35059 33.4782 5.3932 34.5208 6.67934 34.5208Z" fill="white" stroke="#018103" stroke-width="0.421875" stroke-miterlimit="10"/>
<path d="M4.89643 31.8288L5.15237 32.1269C5.16765 32.1448 5.18881 32.1566 5.21202 32.1602C5.23523 32.1638 5.25895 32.159 5.27893 32.1466C5.55626 31.9753 5.85144 31.8348 6.15924 31.7276C6.72174 31.5307 7.093 30.7741 6.67956 30.6222C6.57397 30.5763 6.47915 30.5087 6.40117 30.424C6.3232 30.3392 6.26379 30.2391 6.22675 30.1301C6.21823 30.1135 6.20532 30.0997 6.18945 30.09C6.17357 30.0803 6.15534 30.0752 6.13675 30.0752C6.11815 30.0752 6.09992 30.0803 6.08405 30.09C6.06817 30.0997 6.05526 30.1135 6.04675 30.1301C5.81612 30.5407 5.2705 31.466 4.92175 31.691C4.91097 31.6983 4.90175 31.7077 4.89463 31.7186C4.88751 31.7296 4.88264 31.7418 4.88028 31.7546C4.87793 31.7674 4.87814 31.7806 4.88092 31.7933C4.88369 31.8061 4.88896 31.8181 4.89643 31.8288Z" fill="#A2B983"/>
<path d="M6.34758 34.3854C6.29331 34.3936 6.23784 34.3884 6.18601 34.3703C6.13418 34.3523 6.08755 34.3218 6.05014 34.2816C6.01274 34.2415 5.9857 34.1928 5.97137 34.1398C5.95704 34.0868 5.95584 34.0311 5.96789 33.9775C6.00237 33.8566 6.00812 33.7293 5.98468 33.6058C5.96124 33.4822 5.90926 33.3659 5.83289 33.266C5.57414 32.9679 6.13102 32.8751 6.46008 32.8469C6.52109 32.8408 6.5822 32.8576 6.63156 32.894C6.68093 32.9303 6.71503 32.9837 6.72727 33.0438C6.8004 33.3897 6.90164 34.0535 6.67946 34.2419C6.58393 34.319 6.46919 34.3686 6.34758 34.3854Z" fill="#A2B983"/>
<path d="M8.4574 31.0496C8.4574 31.0496 7.78803 31.5306 7.78803 31.7274C7.78803 31.9243 8.24928 32.5206 7.78803 32.5206C7.32678 32.5206 7.67553 33.055 7.78803 33.6175L7.81334 33.7553C7.82096 33.7934 7.83926 33.8285 7.86608 33.8567C7.8929 33.8848 7.92716 33.9047 7.96486 33.9142C8.00257 33.9236 8.04218 33.9221 8.07909 33.9099C8.11599 33.8977 8.14867 33.8753 8.17334 33.8453L8.58959 33.2265C8.79165 32.9343 8.87877 32.5778 8.83428 32.2253C8.7499 31.6825 8.62053 30.9596 8.4574 31.0496Z" fill="#A2B983"/>
<path d="M45.9899 38.5794C47.276 38.5794 48.3186 37.5368 48.3186 36.2506C48.3186 34.9645 47.276 33.9219 45.9899 33.9219C44.7037 33.9219 43.6611 34.9645 43.6611 36.2506C43.6611 37.5368 44.7037 38.5794 45.9899 38.5794Z" fill="white" stroke="#018103" stroke-width="0.421875" stroke-miterlimit="10"/>
<path d="M44.2071 35.8817L44.4631 36.1798C44.4783 36.1977 44.4995 36.2095 44.5227 36.2131C44.5459 36.2167 44.5696 36.2119 44.5896 36.1995C44.8673 36.0288 45.1624 35.8884 45.4699 35.7805C46.0324 35.5836 46.4037 34.827 45.9902 34.6751C45.8858 34.6304 45.7916 34.5646 45.7137 34.4819C45.6358 34.3991 45.5758 34.3012 45.5374 34.1942C45.5294 34.1776 45.5168 34.1635 45.5011 34.1537C45.4855 34.1439 45.4673 34.1387 45.4488 34.1387C45.4303 34.1387 45.4122 34.1439 45.3966 34.1537C45.3809 34.1635 45.3683 34.1776 45.3602 34.1942C45.1268 34.6048 44.5812 35.5301 44.2352 35.7551C44.216 35.7692 44.2026 35.7899 44.1974 35.8131C44.1922 35.8364 44.1957 35.8608 44.2071 35.8817Z" fill="#A2B983"/>
<path d="M45.6585 38.4437C45.6043 38.4519 45.5488 38.4468 45.497 38.4287C45.4451 38.4106 45.3985 38.3802 45.3611 38.34C45.3237 38.2998 45.2967 38.2511 45.2823 38.1982C45.268 38.1452 45.2668 38.0895 45.2788 38.0359C45.3139 37.9152 45.3203 37.788 45.2973 37.6644C45.2743 37.5409 45.2227 37.4244 45.1467 37.3244C44.8851 37.0262 45.4448 36.9334 45.7739 36.9053C45.8347 36.8998 45.8955 36.9168 45.9448 36.9531C45.994 36.9894 46.0282 37.0424 46.041 37.1022C46.1113 37.4481 46.2154 38.1119 45.9904 38.3003C45.8949 38.3774 45.7801 38.427 45.6585 38.4437Z" fill="#A2B983"/>
<path d="M47.7679 35.1082C47.7679 35.1082 47.0986 35.5892 47.0986 35.786C47.0986 35.9829 47.5598 36.5792 47.0986 36.5792C46.6373 36.5792 46.9889 37.1136 47.0986 37.6761L47.1267 37.8139C47.1347 37.8513 47.1531 37.8858 47.1797 37.9134C47.2063 37.941 47.2401 37.9606 47.2773 37.97C47.3145 37.9793 47.3535 37.9781 47.39 37.9664C47.4265 37.9547 47.459 37.9331 47.4839 37.9039L47.9001 37.2851C48.0989 36.9906 48.182 36.6331 48.1336 36.281C48.0604 35.741 47.9283 35.0182 47.7679 35.1082Z" fill="#A2B983"/>
<path d="M54.1124 23.2366C55.3986 23.2366 56.4412 22.194 56.4412 20.9079C56.4412 19.6217 55.3986 18.5791 54.1124 18.5791C52.8263 18.5791 51.7837 19.6217 51.7837 20.9079C51.7837 22.194 52.8263 23.2366 54.1124 23.2366Z" fill="white" stroke="#018103" stroke-width="0.421875" stroke-miterlimit="10"/>
<path d="M52.3295 20.5425L52.5854 20.8406C52.5999 20.8595 52.6212 20.8721 52.6448 20.8758C52.6683 20.8795 52.6924 20.8739 52.712 20.8603C52.9888 20.6907 53.283 20.5512 53.5895 20.444C54.152 20.2472 54.526 19.4906 54.1126 19.3387C54.0075 19.2915 53.913 19.2236 53.8347 19.139C53.7564 19.0545 53.696 18.955 53.657 18.8465C53.6489 18.8299 53.6363 18.8159 53.6207 18.8061C53.605 18.7962 53.5869 18.791 53.5684 18.791C53.5499 18.791 53.5318 18.7962 53.5161 18.8061C53.5004 18.8159 53.4878 18.8299 53.4798 18.8465C53.2492 19.26 52.7007 20.1853 52.3548 20.4103C52.334 20.4245 52.3197 20.4464 52.3149 20.4712C52.3102 20.4959 52.3154 20.5216 52.3295 20.5425Z" fill="#A2B983"/>
<path d="M53.7774 23.1018C53.7234 23.1095 53.6683 23.1039 53.6168 23.0856C53.5654 23.0673 53.5191 23.0368 53.482 22.9967C53.445 22.9566 53.4182 22.9081 53.404 22.8554C53.3898 22.8026 53.3886 22.7472 53.4006 22.694C53.435 22.573 53.4408 22.4457 53.4173 22.3222C53.3939 22.1986 53.3419 22.0823 53.2655 21.9824C53.004 21.6815 53.5637 21.5887 53.8927 21.5605C53.954 21.5552 54.0152 21.5725 54.0644 21.6094C54.1137 21.6462 54.1477 21.6999 54.1599 21.7602C54.233 22.1061 54.3343 22.7699 54.1121 22.9583C54.0156 23.0355 53.8999 23.0851 53.7774 23.1018Z" fill="#A2B983"/>
<path d="M55.8873 19.7629C55.8873 19.7629 55.218 20.2439 55.218 20.4436C55.218 20.6432 55.682 21.2367 55.218 21.2367C54.7539 21.2367 55.1083 21.7711 55.218 22.3308L55.2461 22.4686C55.2533 22.5069 55.2713 22.5424 55.298 22.5709C55.3246 22.5993 55.3588 22.6196 55.3966 22.6294C55.4344 22.6391 55.4741 22.6379 55.5112 22.6258C55.5483 22.6138 55.5812 22.5914 55.6061 22.5614L56.0224 21.9426C56.2199 21.6476 56.3029 21.2905 56.2558 20.9386C56.1827 20.4126 56.0533 19.6758 55.8873 19.7629Z" fill="#A2B983"/>
<path d="M35.1705 22.0862C36.4567 22.0862 37.4993 21.0436 37.4993 19.7575C37.4993 18.4713 36.4567 17.4287 35.1705 17.4287C33.8844 17.4287 32.8418 18.4713 32.8418 19.7575C32.8418 21.0436 33.8844 22.0862 35.1705 22.0862Z" fill="white" stroke="#018103" stroke-width="0.421875" stroke-miterlimit="10"/>
<path d="M33.3875 19.3921L33.6434 19.6902C33.6579 19.7091 33.6792 19.7217 33.7027 19.7254C33.7263 19.729 33.7504 19.7235 33.77 19.7099C34.0479 19.5405 34.343 19.4009 34.6503 19.2937C35.2128 19.0968 35.584 18.3402 35.1706 18.1883C35.0655 18.1415 34.9712 18.0737 34.8933 17.989C34.8155 17.9044 34.7557 17.8047 34.7178 17.6962C34.7097 17.6795 34.6971 17.6655 34.6815 17.6556C34.6658 17.6458 34.6477 17.6406 34.6292 17.6406C34.6107 17.6406 34.5926 17.6458 34.5769 17.6556C34.5612 17.6655 34.5486 17.6795 34.5406 17.6962C34.3071 18.1096 33.7615 19.0349 33.4156 19.2599C33.3943 19.2737 33.3794 19.2954 33.3742 19.3202C33.3689 19.345 33.3737 19.3708 33.3875 19.3921Z" fill="#A2B983"/>
<path d="M34.8385 21.9513C34.7842 21.9595 34.7287 21.9544 34.6769 21.9363C34.6251 21.9183 34.5784 21.8878 34.541 21.8476C34.5036 21.8075 34.4766 21.7588 34.4622 21.7058C34.4479 21.6528 34.4467 21.5971 34.4588 21.5435C34.4939 21.4229 34.5002 21.2956 34.4772 21.1721C34.4543 21.0485 34.4027 20.932 34.3266 20.832C34.065 20.531 34.6247 20.4382 34.9538 20.4101C35.0147 20.4048 35.0755 20.4223 35.1243 20.4592C35.1731 20.4961 35.2066 20.5497 35.2181 20.6098C35.2913 20.9529 35.3953 21.6195 35.1703 21.8079C35.0748 21.885 34.9601 21.9346 34.8385 21.9513Z" fill="#A2B983"/>
<path d="M36.9589 18.6127C36.9589 18.6127 36.2895 19.0936 36.2895 19.2933C36.2895 19.493 36.7507 20.0864 36.2895 20.0864C35.8282 20.0864 36.177 20.6208 36.2895 21.1805L36.3176 21.3183C36.3242 21.3567 36.3418 21.3924 36.3681 21.421C36.3945 21.4497 36.4286 21.4702 36.4663 21.48C36.504 21.4898 36.5437 21.4885 36.5807 21.4763C36.6177 21.4641 36.6503 21.4414 36.6748 21.4111L37.0911 20.7924C37.2899 20.4978 37.373 20.1403 37.3245 19.7883C37.2401 19.2483 37.1107 18.5255 36.9589 18.6127Z" fill="#A2B983"/>
<path d="M41.9961 13.292C43.5432 13.292 44.7973 12.0378 44.7973 10.4907C44.7973 8.94362 43.5432 7.68945 41.9961 7.68945C40.449 7.68945 39.1948 8.94362 39.1948 10.4907C39.1948 12.0378 40.449 13.292 41.9961 13.292Z" fill="white" stroke="#018103" stroke-width="0.421875" stroke-miterlimit="10"/>
<path d="M39.8566 10.055L40.1631 10.4122C40.1812 10.4338 40.2065 10.4483 40.2344 10.453C40.2622 10.4576 40.2908 10.4521 40.315 10.4375C40.6484 10.2321 41.0029 10.0633 41.3725 9.93403C42.0559 9.69778 42.4975 8.78934 41.9969 8.60653C41.8707 8.55014 41.7572 8.46872 41.6635 8.3672C41.5697 8.26567 41.4975 8.14616 41.4512 8.01591C41.4428 7.99565 41.4288 7.97816 41.411 7.96539C41.3931 7.95262 41.372 7.94508 41.3501 7.94362C41.3282 7.94216 41.3063 7.94684 41.2869 7.95712C41.2675 7.96741 41.2514 7.98289 41.2403 8.00184C40.9591 8.49965 40.3037 9.61059 39.8762 9.88059C39.8624 9.88992 39.8508 9.90215 39.8421 9.91641C39.8335 9.93068 39.828 9.94666 39.8262 9.96323C39.8243 9.97981 39.826 9.9966 39.8313 10.0124C39.8365 10.0283 39.8452 10.0428 39.8566 10.055Z" fill="#A2B983"/>
<path d="M41.5974 13.1288C41.5324 13.138 41.4661 13.1313 41.4042 13.1094C41.3424 13.0874 41.2867 13.0509 41.242 13.0029C41.1973 12.9548 41.1648 12.8967 41.1473 12.8334C41.1299 12.7701 41.128 12.7036 41.1417 12.6394C41.1816 12.4959 41.1878 12.3452 41.16 12.1988C41.1322 12.0525 41.0711 11.9146 40.9814 11.7957C40.6664 11.4357 41.3386 11.3232 41.7352 11.2894C41.8087 11.2824 41.8823 11.303 41.9415 11.3472C42.0008 11.3914 42.0415 11.456 42.0558 11.5285C42.143 11.9419 42.2667 12.7407 41.9967 12.9657C41.8805 13.0545 41.7426 13.1108 41.5974 13.1288Z" fill="#A2B983"/>
<path d="M44.1309 9.11836C44.1309 9.11836 43.3265 9.69773 43.3265 9.93398C43.3265 10.1702 43.889 10.8874 43.3265 10.8874C42.764 10.8874 43.1943 11.5287 43.3265 12.2037L43.3602 12.3696C43.3688 12.4155 43.3903 12.458 43.4222 12.4921C43.4541 12.5262 43.4951 12.5504 43.5403 12.5619C43.5856 12.5735 43.6332 12.5718 43.6775 12.5572C43.7218 12.5425 43.7611 12.5155 43.7905 12.4793L44.2912 11.734C44.5293 11.3808 44.6293 10.9524 44.5724 10.5302C44.4852 9.88054 44.3277 9.01148 44.1309 9.11836Z" fill="#A2B983"/>
<path d="M17.0048 16.9086C18.3422 16.9086 19.4264 15.8244 19.4264 14.487C19.4264 13.1496 18.3422 12.0654 17.0048 12.0654C15.6674 12.0654 14.5833 13.1496 14.5833 14.487C14.5833 15.8244 15.6674 16.9086 17.0048 16.9086Z" fill="white" stroke="#018103" stroke-width="0.421875" stroke-miterlimit="10"/>
<path d="M15.151 14.1075L15.4154 14.4197C15.4316 14.438 15.4537 14.45 15.4779 14.4536C15.5021 14.4572 15.5267 14.4522 15.5476 14.4394C15.8361 14.2631 16.1425 14.1179 16.4616 14.0063C17.0551 13.801 17.432 13.0135 17.0045 12.856C16.8946 12.8079 16.796 12.7376 16.7147 12.6495C16.6334 12.5614 16.5711 12.4574 16.532 12.3441C16.5233 12.327 16.51 12.3126 16.4936 12.3025C16.4772 12.2924 16.4584 12.2871 16.4391 12.2871C16.4199 12.2871 16.4011 12.2924 16.3847 12.3025C16.3683 12.3126 16.355 12.327 16.3463 12.3441C16.1045 12.7716 15.5363 13.7335 15.1679 13.9669C15.1574 13.9749 15.1485 13.9849 15.142 13.9964C15.1354 14.0079 15.1312 14.0205 15.1296 14.0337C15.128 14.0468 15.1291 14.0601 15.1328 14.0728C15.1365 14.0855 15.1427 14.0973 15.151 14.1075Z" fill="#A2B983"/>
<path d="M16.6591 16.7568C16.6027 16.7651 16.5451 16.7594 16.4914 16.7405C16.4377 16.7215 16.3893 16.6898 16.3506 16.648C16.3118 16.6062 16.2838 16.5556 16.269 16.5006C16.2541 16.4456 16.2529 16.3878 16.2653 16.3321C16.3003 16.2068 16.3058 16.0751 16.2814 15.9472C16.257 15.8194 16.2034 15.6989 16.1247 15.5953C15.8434 15.2831 16.4341 15.1846 16.7772 15.1565C16.8411 15.1503 16.9051 15.1677 16.9569 15.2056C17.0088 15.2434 17.0449 15.2991 17.0584 15.3618C17.1316 15.7218 17.2384 16.4109 17.0078 16.6078C16.9064 16.6867 16.7862 16.7381 16.6591 16.7568Z" fill="#A2B983"/>
<path d="M18.8493 13.2998C18.8493 13.2998 18.1546 13.8005 18.1546 14.0058C18.1546 14.2111 18.6355 14.8298 18.1546 14.8298C17.6737 14.8298 18.0393 15.3923 18.1546 15.9689L18.1827 16.1123C18.1903 16.1518 18.209 16.1883 18.2366 16.2176C18.2643 16.2468 18.2997 16.2675 18.3387 16.2772C18.3777 16.287 18.4187 16.2854 18.4569 16.2726C18.495 16.2598 18.5287 16.2364 18.554 16.2051L18.9871 15.5611C19.1938 15.2561 19.2809 14.8856 19.2318 14.5205C19.1558 13.958 19.0208 13.207 18.8493 13.2998Z" fill="#A2B983"/>
<path d="M29.3794 7.92281C31.509 7.92281 33.2353 6.19645 33.2353 4.06687C33.2353 1.9373 31.509 0.210938 29.3794 0.210938C27.2498 0.210938 25.5234 1.9373 25.5234 4.06687C25.5234 6.19645 27.2498 7.92281 29.3794 7.92281Z" fill="white" stroke="#018103" stroke-width="0.421875" stroke-miterlimit="10"/>
<path d="M26.4292 3.46179L26.8511 3.95679C26.8763 3.98684 26.9115 4.0068 26.9502 4.013C26.989 4.0192 27.0286 4.01122 27.062 3.99054C27.5197 3.70708 28.0074 3.47506 28.5161 3.29866C29.4611 2.97241 30.0629 1.72085 29.3795 1.47054C29.2056 1.39257 29.0493 1.28006 28.9203 1.13985C28.7912 0.99964 28.6919 0.834657 28.6286 0.654915C28.6163 0.626876 28.5964 0.602793 28.5713 0.585323C28.5461 0.567853 28.5166 0.557681 28.4861 0.555935C28.4555 0.554188 28.425 0.560927 28.3981 0.575418C28.3711 0.58991 28.3487 0.611586 28.3332 0.63804C27.9507 1.32148 27.0451 2.85148 26.4601 3.22273C26.4412 3.23545 26.4252 3.25207 26.4132 3.27147C26.4011 3.29088 26.3934 3.31262 26.3905 3.33525C26.3876 3.35788 26.3895 3.38088 26.3962 3.4027C26.4028 3.42452 26.4141 3.44467 26.4292 3.46179Z" fill="#A2B983"/>
<path d="M28.8287 7.69541C28.7396 7.70717 28.649 7.69744 28.5645 7.66702C28.48 7.6366 28.404 7.58639 28.3429 7.52058C28.2817 7.45476 28.2373 7.37527 28.2131 7.28874C28.189 7.20221 28.186 7.11117 28.2043 7.02323C28.2606 6.82296 28.2698 6.6124 28.2312 6.40798C28.1927 6.20356 28.1074 6.01082 27.9821 5.84479C27.549 5.34979 28.4743 5.1951 29.0199 5.1501C29.1207 5.14103 29.2213 5.16922 29.3027 5.22935C29.384 5.28948 29.4405 5.37736 29.4615 5.47635C29.5796 6.03885 29.7427 7.14698 29.3799 7.45916C29.2209 7.58634 29.0304 7.66799 28.8287 7.69541Z" fill="#A2B983"/>
<path d="M32.3179 2.17432C32.3179 2.17432 31.2098 2.97026 31.2098 3.29932C31.2098 3.62838 31.9748 4.61276 31.2098 4.61276C30.4448 4.61276 31.027 5.49589 31.2098 6.42401L31.2548 6.65183C31.2676 6.71448 31.2977 6.77227 31.3417 6.81859C31.3858 6.86492 31.442 6.89789 31.5039 6.91374C31.5659 6.92959 31.631 6.92767 31.6919 6.90821C31.7528 6.88875 31.807 6.85253 31.8483 6.80369L32.5401 5.77713C32.867 5.28966 33.0041 4.69938 32.9255 4.11776C32.8045 3.2262 32.5908 2.02807 32.3179 2.17432Z" fill="#A2B983"/>
</g>
<defs>
<clipPath id="clip0_491_2442">
<rect width="57.3328" height="53.9044" fill="white"/>
</clipPath>
</defs>
</svg>
